{"title":"Down - Nola - Custom Remaster by MC Lurken 16-bit 44.1kHz flac","uid":7678942,"size":440128423,"categoryP":"audio","categoryS":"flac","magnet":"?xt=urn:btih:5f11aad0121118b0812b292937f562dec4b8f4f4&amp;dn=Down+-+Nola+-+Custom+Remaster+by+MC+Lurken+16-bit+44.1kHz+flac&amp;tr=udp%3A%2F%2Ftracker.openbittorrent.com%3A80&amp;tr=udp%3A%2F%2Fopen.demonii.com%3A1337&amp;tr=udp%3A%2F%2Ftracker.coppersurfer.tk%3A6969&amp;tr=udp%3A%2F%2Fexodus.desync.com%3A6969","seeders":0,"leechers":1,"uploader":"beavis39","files":-1,"time":1348770495,"description":"Down - Nola - Custom Remaster by MC Lurken (a.k.a. Beavis39)\n\n\n\n1 - Temptation's Wings\n2 - Lifer\n3 - Pillars Of Eternity\n4 - Rehab\n5 - Hail The Leaf\n6 - Underneath Everything\n7 - Eyes Of The South\n8 - Jail\n9 - Losing All\n10 - Stone The Crow\n11 - Pray For The Locust\n12 - Swan Song\n13 - Bury Me In Smoke\n\n\n\nSetup:\n-HP G72-250US\n-Intel Core i3 M350 2.27GHz\n-8Gb PC3-10700 RAM\n-Win7 64-bit SP1\n-SB X-Fi Surround 5.1\n\n\nProcess:\n-Original 16-bit/44.1kHz files joined in Wavelab 6\n-Remove DC offset and save as 64-bit float/44.1kHz\n-Resample to 384kHz in Wavelab w/crystal resampler ultra(slow) relax background priority\n-Create new 64-bit/384kHz master recording in Wavelab\n\n\nAs reported in Wavelab:\n-Original 16-bit/44.1kHz: Apparent Bit Resolution = 16, Peak = 0db\n-With DC Offset Removed: Apparent Bit Resolution = 19, Peak = 0db\n-64-bit/384kHz Recording: Apparent Bit Resolution = 38, Peak = 1.199db\n\n\n-Resample new 64-bit/384kHz master recording to 64-bit/44.1kHz in Wavelab w/crystal resampler ultra(slow) relax background priority\n-Apply MBIT+ 16-bit Dither in Wavelab w/Izotope Ozone 5 VST Plugin\n-Flac encode level 0 with Trader's Little Helper\n-Tag and pic with xrecode II\n\n\nfoobar2000 1.1.14a / Dynamic Range Meter 1.1.1\nlog date: 2012-09-26 23:25:39\n\n--------------------------------------------------------------------------------\nAnalyzed: ? / ?\n--------------------------------------------------------------------------------\n\nDR         Peak         RMS     Duration Track\n--------------------------------------------------------------------------------\nDR8        0.00 dB    -9.18 dB      4:25 ?-01 - Temptation's Wings\nDR7        0.00 dB    -8.19 dB      4:39 ?-02 - Lifer\nDR8        0.00 dB    -9.25 dB      3:55 ?-03 - Pillars Of Eternity\nDR8        0.00 dB    -9.32 dB      4:03 ?-04 - Rehab\nDR9        0.00 dB   -10.17 dB      3:29 ?-05 - Hail The Leaf\nDR8        0.00 dB    -9.71 dB      4:46 ?-06 - Underneath Everything\nDR9        0.00 dB   -12.02 dB      5:14 ?-07 - Eyes Of The South\nDR10      -0.12 dB   -13.36 dB      5:17 ?-08 - Jail\nDR8        0.00 dB    -9.33 dB      4:22 ?-09 - Losing All\nDR8        0.00 dB    -9.82 dB      4:43 ?-10 - Stone The Crow\nDR12       0.00 dB   -15.28 dB      1:08 ?-11 - Pray For The Locust\nDR8        0.00 dB    -9.45 dB      3:35 ?-12 - Swan Song\nDR9        0.00 dB   -10.79 dB      7:04 ?-13 - Bury Me In Smoke\n--------------------------------------------------------------------------------\n\nNumber of tracks:  13\nOfficial DR value: DR9\n\nSamplerate:        44100 Hz\nChannels:          2\nBits per sample:   16\nBitrate:           1411 kbps\nCodec:             PCM\n\n\n\nenjoy :)\n","torrent":{"xt":"urn:btih:5f11aad0121118b0812b292937f562dec4b8f4f4","amp;dn":"Down+-+Nola+-+Custom+Remaster+by+MC+Lurken+16-bit+44.1kHz+flac","amp;tr":["udp%3A%2F%2Ftracker.openbittorrent.com%3A80","udp%3A%2F%2Fopen.demonii.com%3A1337","udp%3A%2F%2Ftracker.coppersurfer.tk%3A6969","udp%3A%2F%2Fexodus.desync.com%3A6969"],"infoHash":"5f11aad0121118b0812b292937f562dec4b8f4f4","infoHashBuffer":{"type":"Buffer","data":[95,17,170,208,18,17,24,176,129,43,41,41,55,245,98,222,196,184,244,244]},"announce":[],"urlList":[]}}